<svg width="690" height="112" viewBox="0 0 690 112" xmlns="http://www.w3.org/2000/svg">
<style>
<![CDATA[
  text { font-family: 'Segoe UI', Verdana, Arial, sans-serif; }
  .mono { font-family: 'Courier New', Consolas, monospace; }
  .card { opacity:0; animation: rise 0.6s ease forwards; }
  @keyframes rise { to { opacity:1; } }
  .bar { animation: grow 1s ease forwards; }
  @keyframes grow { from { width:0; } }
]]>
</style>
<g class="card" style="animation-delay:0.05s" transform="translate(8,10)">
  <rect width="100" height="92" rx="9" fill="#1b0c2b" stroke="#ff4fd8" stroke-width="1.2"/>
  <text x="14" y="30" font-size="15">&#127760;</text>
  <text x="86" y="30" font-size="11" font-weight="800" class="mono" fill="#ff8de3" text-anchor="end">A</text>
  <text x="50" y="56" font-size="9.5" font-weight="700" fill="#f7eafb" text-anchor="middle">Web Dev</text>
  <text x="50" y="70" font-size="7" fill="#b696d0" text-anchor="middle">3 live sites</text>
  <rect class="bar" x="16" y="78" width="68" height="3" rx="2" fill="#ff4fd8"/>
</g>
<g class="card" style="animation-delay:0.15s" transform="translate(120,10)">
  <rect width="100" height="92" rx="9" fill="#1b0c2b" stroke="#c084fc" stroke-width="1.2"/>
  <text x="14" y="30" font-size="15">&#128202;</text>
  <text x="86" y="30" font-size="11" font-weight="800" class="mono" fill="#d8b4fe" text-anchor="end">A</text>
  <text x="50" y="56" font-size="9.5" font-weight="700" fill="#f7eafb" text-anchor="middle">Data Analyst</text>
  <text x="50" y="70" font-size="7" fill="#b696d0" text-anchor="middle">Interloop Ltd</text>
  <rect class="bar" x="16" y="78" width="68" height="3" rx="2" fill="#c084fc"/>
</g>
<g class="card" style="animation-delay:0.25s" transform="translate(232,10)">
  <rect width="100" height="92" rx="9" fill="#1b0c2b" stroke="#fbbf24" stroke-width="1.2"/>
  <text x="14" y="30" font-size="15">&#127891;</text>
  <text x="86" y="30" font-size="11" font-weight="800" class="mono" fill="#fcd34d" text-anchor="end">S</text>
  <text x="50" y="56" font-size="9.5" font-weight="700" fill="#f7eafb" text-anchor="middle">Certified</text>
  <text x="50" y="70" font-size="7" fill="#b696d0" text-anchor="middle">Coursera x3</text>
  <rect class="bar" x="16" y="78" width="68" height="3" rx="2" fill="#fbbf24"/>
</g>
<g class="card" style="animation-delay:0.35s" transform="translate(344,10)">
  <rect width="100" height="92" rx="9" fill="#1b0c2b" stroke="#22d3ee" stroke-width="1.2"/>
  <text x="14" y="30" font-size="15">&#129302;</text>
  <text x="86" y="30" font-size="11" font-weight="800" class="mono" fill="#67e8f9" text-anchor="end">A</text>
  <text x="50" y="56" font-size="9.5" font-weight="700" fill="#f7eafb" text-anchor="middle">Prompt Eng</text>
  <text x="50" y="70" font-size="7" fill="#b696d0" text-anchor="middle">Vanderbilt</text>
  <rect class="bar" x="16" y="78" width="68" height="3" rx="2" fill="#22d3ee"/>
</g>
<g class="card" style="animation-delay:0.45s" transform="translate(456,10)">
  <rect width="100" height="92" rx="9" fill="#1b0c2b" stroke="#4ade80" stroke-width="1.2"/>
  <text x="14" y="30" font-size="15">&#128170;</text>
  <text x="86" y="30" font-size="11" font-weight="800" class="mono" fill="#86efac" text-anchor="end">B</text>
  <text x="50" y="56" font-size="9.5" font-weight="700" fill="#f7eafb" text-anchor="middle">Iron Flex</text>
  <text x="50" y="70" font-size="7" fill="#b696d0" text-anchor="middle">Fitness build</text>
  <rect class="bar" x="16" y="78" width="68" height="3" rx="2" fill="#4ade80"/>
</g>
<g class="card" style="animation-delay:0.55s" transform="translate(568,10)">
  <rect width="100" height="92" rx="9" fill="#1b0c2b" stroke="#fb923c" stroke-width="1.2"/>
  <text x="14" y="30" font-size="15">&#128640;</text>
  <text x="86" y="30" font-size="11" font-weight="800" class="mono" fill="#fdba74" text-anchor="end">B</text>
  <text x="50" y="56" font-size="9.5" font-weight="700" fill="#f7eafb" text-anchor="middle">Shipper</text>
  <text x="50" y="70" font-size="7" fill="#b696d0" text-anchor="middle">Always live</text>
  <rect class="bar" x="16" y="78" width="68" height="3" rx="2" fill="#fb923c"/>
</g>
</svg>
